<svg width="157" height="195" viewBox="0 0 157 195" fill="none" xmlns="http://www.w3.org/2000/svg">
<path d="M156.367 1.93084C156.131 1.40294 155.746 0.955095 155.26 0.641857C154.774 0.328619 154.207 0.163518 153.629 0.16667H68.8884C68.3794 0.167518 67.8789 0.296052 67.4325 0.540498C66.9861 0.784945 66.6082 1.13749 66.3334 1.56584L1.18087 104.982C0.867211 105.433 0.68395 105.961 0.651283 106.509C0.618616 107.057 0.737811 107.603 0.995736 108.087C1.25366 108.572 1.64031 108.975 2.11306 109.254C2.58581 109.533 3.12633 109.676 3.67504 109.667H50.3342L9.15004 190.271C8.91359 190.75 8.80245 191.282 8.82701 191.816C8.85156 192.35 9.01101 192.868 9.29046 193.324C9.56991 193.78 9.96025 194.157 10.425 194.421C10.8898 194.685 11.4139 194.827 11.9484 194.833H30.1984C30.6206 194.836 31.0387 194.751 31.4262 194.584C31.8137 194.416 32.1621 194.17 32.4492 193.86L139.333 78.3375C139.758 77.905 140.043 77.3556 140.153 76.7598C140.263 76.164 140.193 75.5489 139.951 74.9933C139.709 74.4377 139.307 73.9671 138.796 73.6416C138.285 73.3162 137.688 73.1508 137.083 73.1667H96.0809L155.88 5.155C156.266 4.72293 156.517 4.18793 156.603 3.61536C156.69 3.04279 156.608 2.45745 156.367 1.93084Z" fill="#EBEBEB"/>
</svg>
