<svg width="24" height="24" viewBox="0 0 24 24" fill="none" xmlns="http://www.w3.org/2000/svg">
<g clip-path="url(#clip0_1_25)">
<path d="M20.5333 1.52668C20.5074 1.46883 20.4653 1.41975 20.412 1.38542C20.3588 1.3511 20.2967 1.333 20.2333 1.33335H10.9466C10.8909 1.33344 10.836 1.34753 10.7871 1.37432C10.7382 1.4011 10.6968 1.43974 10.6666 1.48668L3.52663 12.82C3.49226 12.8694 3.47218 12.9272 3.4686 12.9873C3.46502 13.0473 3.47808 13.1072 3.50635 13.1603C3.53461 13.2133 3.57698 13.2576 3.62879 13.2881C3.6806 13.3187 3.73983 13.3343 3.79997 13.3333H8.9133L4.39997 22.1667C4.37406 22.2192 4.36188 22.2775 4.36457 22.336C4.36726 22.3945 4.38473 22.4514 4.41536 22.5013C4.44598 22.5512 4.48876 22.5926 4.53969 22.6215C4.59063 22.6504 4.64806 22.666 4.70663 22.6667H6.70663C6.7529 22.667 6.79873 22.6577 6.84119 22.6393C6.88366 22.6209 6.92184 22.5939 6.9533 22.56L18.6666 9.90001C18.7131 9.85262 18.7444 9.79241 18.7565 9.72712C18.7685 9.66182 18.7608 9.59441 18.7343 9.53353C18.7078 9.47264 18.6637 9.42106 18.6077 9.3854C18.5517 9.34973 18.4863 9.33161 18.42 9.33335H13.9266L20.48 1.88001C20.5222 1.83266 20.5498 1.77403 20.5592 1.71129C20.5687 1.64854 20.5597 1.58439 20.5333 1.52668Z" fill="white"/>
</g>
<defs>
<clipPath id="clip0_1_25">
<rect width="24" height="24" fill="white"/>
</clipPath>
</defs>
</svg>
